<svg width="151.42" height="239.1" version="1.1" viewBox="0 0 151.42 239.1">
 <g transform="translate(-23.407 -28.973)">
  <path transform="scale(.26458)" d="m320.3 109.51c-9.7649 0.0356-19.409 0.67187-28.873 1.9219-151.43 20-205.71 191.43-202.86 388.57 0 0 11.427 317.14 45.713 394.29 34.286 77.143 225.72 174.29 391.43 80 165.71-94.286 137.14-265.71 125.71-505.71-10.714-225-184.65-359.6-331.13-359.07zm20.889 187.58c1.4982-0.01 3.0075 8e-3 4.5254 0.0527 100 0 185.71 42.857 182.86 277.14-2.8571 234.29-17.144 268.57-114.29 282.86-97.143 14.286-200-2.856-211.43-228.57-11.25-222.19 43.944-330.87 138.33-331.48z" fill="orange"/>
 </g>
</svg>
