<svg width="166.69" height="246.93" version="1.1" viewBox="0 0 166.69 246.93">
 <g transform="translate(-20.03 -21.167)">
  <path d="m148.17 113.39 38.554-2.2679s-12.851-89.958-90.714-89.958c-77.863 0-77.107 103.57-75.595 133.8 1.5119 30.238 6.0476 107.35 66.524 112.64 60.476 5.2917 96.006-33.262 96.006-80.887s-113.39-20.411-113.39-20.411l13.607 31.75s65.768-19.655 66.524-2.2679c0.75595 17.387-21.923 30.994-43.845 30.238-21.923-0.75595-46.869-12.851-49.137-82.399-2.2679-69.548 9.8274-86.935 32.506-87.69 22.679-0.75595 60.476 3.7798 58.964 57.452z" fill="green"/>
 </g>
</svg>
